<svg width="340.91" height="77.5" xmlns="http://www.w3.org/2000/svg">
    <style type="text/css">.st0{fill:#FFFFFF;}
        .st1{fill:#0C2E82;}
        .st2{fill:#FF0000;stroke:#FFFFFF;stroke-width:1.4328;}
    </style>

    <g>
        <title>Layer 1</title>
        <g id="svg_9">
            <g id="svg_1">
                <path id="svg_2"
                      d="m67.03,10.49l0,-0.05l-1.82,0c-0.07,0 -0.13,-0.01 -0.2,-0.01l0,0.01l-36.4,0c-12.47,0 -18.69,5.03 -18.69,15.08l0,27.68c0,9.99 6.23,14.99 18.69,14.99l36.45,0l0,-0.02c12.42,-0.02 18.64,-5 18.64,-14.97l0,-27.68c0,-9.5 -5.56,-14.51 -16.67,-15.03zm-3.99,43.65l-30.23,0l0,-29.97l30.23,0l0,29.97z"
                      class="st1"/>
            </g>
            <g id="svg_3">
                <path id="svg_4"
                      d="m249.93,67.99l-21.69,0l0,-15.13l-30.36,0l0,15.13l-21.68,0l0,-44.45c0,-3.79 1.42,-6.8 4.29,-9.06c2.8,-2.19 6.79,-3.28 11.99,-3.28l41.27,0c5.2,0 9.19,1.09 11.98,3.28c2.8,2.19 4.2,5.22 4.2,9.06l0,44.45zm-21.68,-25.59l0,-16.43l-30.36,0l0,16.43l30.36,0z"
                      class="st1"/>
                <path id="svg_5"
                      d="m327.69,14.05c-2.19,-1.74 -5.56,-2.67 -10.08,-2.82l0.08,-0.02l-0.85,0c-0.18,0 -0.35,-0.01 -0.54,-0.01l-38.6,0l-0.02,0.01l-1.26,0c-5.2,0 -9.19,1.08 -11.99,3.28c-2.8,2.18 -4.21,5.12 -4.29,8.79l-0.01,0l0,0.14c0,0.06 0,0.09 0,0.14l0,0l0,44.44l21.69,0l0,-14.83l35.06,0c9.52,0 14.29,-3.81 14.29,-11.48l0,-18.21c0.02,-4.39 -1.15,-7.52 -3.48,-9.43zm-18.57,26.63l-27.58,0l0,-14.72l27.58,0l0,14.72z"
                      class="st1"/>
                <path id="svg_6"
                      d="m148.95,11.2l0,0l-3.24,0l0,33.04c-0.14,0.35 -0.45,0.61 -1.12,0.49c0,0 -0.43,-0.09 -0.73,-0.41c-3.66,-5.66 -17.75,-25.03 -22.26,-31.21c-0.01,-0.03 -0.04,-0.04 -0.05,-0.07l0.01,0c-0.07,-0.07 -0.15,-0.13 -0.22,-0.19c-0.03,-0.05 -0.06,-0.09 -0.11,-0.11c-1.15,-1.03 -2.65,-1.54 -4.65,-1.54l-17.52,0c-2.21,0 -3.9,0.63 -5.08,1.86c-1.19,1.25 -1.79,2.92 -1.81,4.99l-0.03,0.02l0,49.92l20.49,0c0,0 -0.11,-26.37 -0.17,-34.14c0.09,-0.52 0.46,-1.26 2.02,-1.08c0,0 0.6,0.04 0.86,0.5l0,0c3.95,6.31 29.86,34.72 29.86,34.72l21.28,0l0,-56.79l-17.53,0z"
                      class="st1"/>
            </g>
            <g id="svg_7">
                <path id="svg_8"
                      d="m44.79,46.42c0,0 22.96,13.19 27.74,23.65l17.86,0c-1.48,-3.52 -9.99,-19.14 -45.6,-23.65z"
                      class="st2"/>
            </g>
        </g>
    </g>
</svg>