<?xml version="1.0" encoding="utf-8"?>
<!-- Generator: Adobe Illustrator 25.0.0, SVG Export Plug-In . SVG Version: 6.00 Build 0)  -->
<svg version="1.1" id="图层_1" xmlns="http://www.w3.org/2000/svg" xmlns:xlink="http://www.w3.org/1999/xlink" x="0px" y="0px"
	 viewBox="0 0 958.3 475.5" style="enable-background:new 0 0 958.3 475.5;" xml:space="preserve">
<style type="text/css">
	.st0{fill:#040000;}
</style>
<g>
	<polygon points="102.1,160.2 102.1,194.3 80.4,194.3 80.4,318.4 61.4,318.4 61.4,194.3 39.9,194.3 39.9,160.2 	"/>
	<polygon points="174.3,160.2 174.3,193.2 136,193.2 136,222.7 170.5,222.7 170.5,255.5 136,255.7 136,285.5 175.3,285.5 
		175.3,318.4 117,318.4 117,160.2 	"/>
	<path d="M239.3,253.8c1.1-0.4,2.7-1.1,4.4-2.4c5.4-4,11.9-11.9,11.9-35.5c0-27.6-0.8-43.5-13-51.4c-3.9-2.5-11.1-4.3-20.6-4.3
		h-32.6v158.2h18.9v-61.9h11.3h0.4l13,61.9h21.4L239.3,253.8z M233.9,216.6c-0.3,3-1,6.5-3.5,8.3c-2.4,1.6-5.6,1.3-8.3,1.3h-13.8
		v-33h13.8c2.9,0,6.1,0.1,8.4,2.2c2.2,2.1,3,5.4,3.4,8.4C234.5,208,234.4,212.3,233.9,216.6z"/>
	<path d="M322.7,253.8c1.1-0.4,2.7-1.1,4.4-2.4c5.4-4,11.9-11.9,11.9-35.5c0-27.6-0.8-43.5-13-51.4c-3.9-2.5-11.1-4.3-20.6-4.3
		h-32.6v158.2h18.9v-61.9H303h0.4l13,61.9h21.4L322.7,253.8z M317.3,216.6c-0.3,3-1,6.5-3.5,8.3c-2.4,1.6-5.6,1.3-8.3,1.3h-13.8v-33
		h13.8c2.9,0,6.1,0.1,8.4,2.2c2.2,2.1,3,5.4,3.4,8.4C317.8,208,317.7,212.3,317.3,216.6z"/>
	<path d="M902.1,253.8c1.1-0.4,2.7-1.1,4.4-2.4c5.4-4,11.9-11.9,11.9-35.5c0-27.6-0.8-43.5-13-51.4c-3.9-2.5-11.1-4.3-20.6-4.3
		h-35.2v158.2h18.9v-61.9h13.8h0.4l13,61.9h21.4L902.1,253.8z M896.7,216.6c-0.3,3-1,6.5-3.5,8.3c-2.4,1.6-5.6,1.3-8.3,1.3h-16.4
		v-33h16.4c2.9,0,6.1,0.1,8.4,2.2c2.2,2.1,3,5.4,3.4,8.4C897.3,208,897.2,212.3,896.7,216.6z"/>
	<polygon points="462,160.2 481.3,242.2 500.6,160.2 523.9,160.2 523.9,318.4 504.5,318.4 504.4,218.2 487.5,302.6 475.1,302.6 
		458.2,218.2 458.2,318.4 438.8,318.4 438.8,160.2 	"/>
	<path d="M586.4,160.2h-24.6l-28.6,158.2h19.5l5.1-28h31.4l5,28h20.1L586.4,160.2z M563.4,258.8l10.1-56.4l9.9,56.4H563.4z"/>
	<path d="M401.5,160.2h-24.6l-28.6,158.2h19.5l5.1-28h31.4l5,28h20.2L401.5,160.2z M378.6,258.8l10.1-56.4l9.9,56.4H378.6z"/>
	<path d="M653,190.7c-4.6,0-10.1,3.6-10.1,10.8c0,26.2,43.4,11.3,43.4,68.1c0,32.3-15.6,48.7-31.8,48.7c-12.1,0-24.7-9.7-33.4-25.3
		l7.4-32.3c7.5,14,18.7,23.9,26.3,23.9c5.6,0,11.7-4.5,11.7-12.9c0-26.8-43.4-10.6-43.4-66.6c0-29.6,14.1-48.3,31.6-48.3
		c10.7,0,21.4,7.2,29,17.8l-7.1,32.7C668.8,198.2,659,190.7,653,190.7z"/>
	<polygon points="759.9,160.2 759.9,194.3 735.5,194.3 735.5,318.4 716.6,318.4 716.6,194.3 692.5,194.3 692.5,160.2 	"/>
	<polygon points="834.7,160.2 834.7,193.2 793.8,193.2 793.8,222.7 830.9,222.7 830.9,255.5 793.8,255.7 793.8,285.5 835.7,285.5 
		835.7,318.4 774.8,318.4 774.8,160.2 	"/>
</g>
<g>
	<path class="st0" d="M479.2,475.5c-15.2,0-30.5-1.6-45.6-4.9l-0.4-0.1L43.6,366.3C18.3,360.8,0,336.3,0,307.9V164.3
		c0-28.5,18.5-53.1,44-58.5L435.3,4.5c29.1-6,58.6-6,87.7,0l0.4,0.1l390.9,101.2c25.5,5.4,44,29.9,44,58.5v143.6
		c0,28.3-18.3,52.8-43.6,58.4L524.8,470.7C509.6,473.9,494.4,475.5,479.2,475.5z M437,455.5c28,6,56.3,6,84.3,0l389.9-104.4
		c18.3-3.9,31.5-22.1,31.5-43.2V164.3c0-21.3-13.4-39.5-31.8-43.3l-0.4-0.1L519.7,19.6c-26.9-5.5-54.2-5.5-81.1,0L47.4,121
		c-18.4,3.8-31.8,22-31.8,43.3v143.6c0,21.1,13.3,39.3,31.5,43.2l0.4,0.1L437,455.5z"/>
</g>
</svg>
